# xmcd
#
# Track frame offsets:
#  150
#  28928
#  52484
#  77180
#  90370
#  111883
#  128619
#  144258
#
# Disc length: 2444 seconds
#
# Revision: 0
# Processed by: cddbd v1.5.1PL0 Copyright (c) Steve Scherf et al.
# Submitted via: Collectorz.com Music Collector 6.9
#
DISCID=68098a08
DTITLE=Groundhogs - Solid
DYEAR=1974
DGENRE=Blues Rock - Modern Electric Blues
TTITLE0=Light My Light
TTITLE1=Free From All Alarm
TTITLE2=Sins Of My Father
TTITLE3=Sad Go Round
TTITLE4=Corn Cob
TTITLE5=Plea Song, Plea Song
TTITLE6=Snow Storm
TTITLE7=Joker's Grave
EXTD=
EXTT0=
EXTT1=
EXTT2=
EXTT3=
EXTT4=
EXTT5=
EXTT6=
EXTT7=
PLAYORDER=
